<?xml version="1.0" encoding="UTF-8"?>
<svg version="1.1" viewBox="0 0 55.403 24" xmlns="http://www.w3.org/2000/svg">
<defs>
<style type="text/css">#businesstoday-logo { fill: #838383;}</style>
</defs>
<g id="businesstoday-logo" transform="matrix(.20339 0 0 .20339 -.56949 -.20339)">
<path d="m256.7 66.5c1.4-0.6 2.1-1.1 2.1-1.7s-0.7-1-2.2-1.2l-8.5-0.8 0.3 41.1 8.3 0.3z"/>
<path d="m246 84.8-6.1-6.6-4.4 5v-18.1l9.6-0.1c1.1 0 2.8 0.3-0.1-2.8v-0.1l-5.7-5.6-4 4.3h-20.4l0.8 4.2h8.7l0.1 18.7h-10.6l0.8 3.8h9.8l0.1 28.9 10.8-2 0.3-26.9h10.3c1-0.1 3 0.4 0-2.7z"/>
<path d="m270.3 116.7c1.6-1.3 2.4-41.2 2.4-43.6v-13c1.7-0.9 2.5-1.7 2.5-2.4 0-0.6-0.8-1-2.3-1.2l-11.1-1v52.4s0.6 7.7-2 10.8z"/>
<path d="m191.3 108.1v-11.9c1.4-0.6 2.1-1.1 2.1-1.6 0-0.4-0.3-0.8-1-1.4l-7.1-4.9-4.1 3.5h-5.6l-9.1-2.5v24.1l9.5-1.4v-5.4h5.3v2.7zm-15.4-4.6v-8.3h5.3v8.3z"/>
<path d="m208.5 60.2-9.3-5.7-4.2 5h-32.5l-10.5-1.7v29.3c-0.3 5-1.6 21.2-9.2 30.3 0 0 18.4-2.7 19.7-30.3v-0.7-0.9-2.6l0.5 2.2h30.6c0.7 0.1 2.4-0.3 0.6-2.2l0.1 0.1-0.4-0.5-0.5-0.5-4.4-4.6-3.5 4.3-2.4-0.1v-6.4h9.7c0.8 0 3.1 0.3 0.1-2.9l-4.4-4.4-3.5 3.8h-1.9v-2.9c1.3-0.5 1.9-1 1.9-1.6s-0.7-1.1-2.2-1.2l-9.7-0.7v6.4h-8.7l0.8 3.6h7.9v6.4h-10.6v-18.4h32.9v44.9s0.6 7.7-2 10.8l10.4-1.9c1.6-1.3 2.4-3.1 2.4-5.5v-47.7l0.4-0.2c1.8-0.9 2.6-1.6 2.6-2.2 0.3-0.3-0.1-0.8-0.7-1.3z"/>
<path d="m81 18.2c1.2-1.7 2.5-3.4 3.7-5.3 0 0 3.5 0.4 3.9-2.5 0 0 0.2-1.9-2.9-2.8l-20.1-6.6s-19.9 44.5-62.8 69.9c0 0 40.6-8 72.2-45.1 1.6 2 6.5 7.8 13.8 14.8 17.5 20.5 43.6 28.7 43.6 28.7 2-4.2 20.2-22.4 20.2-22.4-41.8-3.7-67.4-25-71.6-28.7z"/>
<path d="m100.2 58.8-11.5-10.4s-2-1.9-3.6 0.4l-5.9 8.8-35.6-0.2 1.1 4.9h53.7c0 0.2 5 0.7 1.8-3.5z"/>
<path d="m116.7 77.5-14.4-6.7-7 4.7h-66.9l1.1 5 63.5-0.1-20.2 29.4c-4.3 5.3-3.5 4.3-6 6.2l19.3 2.9c4.7 0.4 8.5-5.1 8.5-5.1l20.1-28.9c2.4-0.8 3.6-2.2 3.6-2.2 2.6-2.7-1.6-5.2-1.6-5.2z"/>
</g>
</svg>
